<svg xmlns="http://www.w3.org/2000/svg" xmlns:svg="http://www.w3.org/2000/svg" xmlns:xlink="http://www.w3.org/1999/xlink" version="1.0" height="510pt" width="1870pt" viewBox="-5 -103 1878 516" ><defs><style type="text/css">
            @font-face {
                font-family: 'lt_regular';
                src: url('https://app.creately.com/diagram/assets/fonts/lato/lt-regular-webfont.woff2') format('woff2'),
                    url('https://app.creately.com/diagram/assets/fonts/lato/lt-regular-webfont.woff') format('woff');
                font-weight: normal;
                font-style: normal;
            }
            @font-face {
                font-family: 'noto_regular';
                src: url('https://app.creately.com/diagram/assets/fonts/noto/noto-regular.woff') format('woff'),
                     url('https://app.creately.com/diagram/assets/fonts/noto/noto-regular.woff2') format('woff2');
                font-weight: normal;
                font-style: normal;
            }
        p {
            margin: 0;
        }
        </style></defs><defs><style>
            span{ display: inline-block; }
        </style></defs><g id="th7B2VocC4R"><g transform="translate(0 200)"><rect x="0" y="0" width="160" height="60" fill="rgb(5,79,122)" stroke="#054f7a" stroke-width="2" stroke-linecap="round" stroke-linejoin="round" stroke-dasharray="0 0"/></g><g transform="translate(27, 220.5) rotate(0, 53, 9.5)" width="106" height="19"><text text-decoration="none" x="3.5" fill="rgb(255, 255, 255)" font-weight="bold" font-size="10pt" font-family="lt_regular"  y="15">Chief&#160;</text><text text-decoration="none" x="37.5" fill="rgb(255, 255, 255)" font-weight="bold" font-size="10pt" font-family="lt_regular"  y="15">Accountant</text><text text-decoration="none" x="102.5" fill="#4b4b4b" font-size="10pt" font-family="noto_regular"  y="15"></text></g></g><g id="XmbK9sbs7Bs"><g transform="translate(200 200)"><rect x="0" y="0" width="160" height="60" fill="rgb(5,79,122)" stroke="#054f7a" stroke-width="2" stroke-linecap="round" stroke-linejoin="round" stroke-dasharray="0 0"/></g><g transform="translate(227, 220.5) rotate(0, 53, 9.5)" width="106" height="19"><text text-decoration="none" x="3.5" fill="rgb(255, 255, 255)" font-weight="bold" font-size="10pt" font-family="lt_regular"  y="15">Chief&#160;</text><text text-decoration="none" x="37.5" fill="rgb(255, 255, 255)" font-weight="bold" font-size="10pt" font-family="lt_regular"  y="15">Accountant</text><text text-decoration="none" x="102.5" fill="#4b4b4b" font-size="10pt" font-family="noto_regular"  y="15"></text></g></g><g id="dU2iwMXcKdj"><g transform="translate(400 200)"><rect x="0" y="0" width="160" height="60" fill="rgb(242,175,29)" stroke="#f2af1d" stroke-width="2" stroke-linecap="round" stroke-linejoin="round" stroke-dasharray="0 0"/></g><g transform="translate(436.5, 220.5) rotate(0, 43.5, 9.5)" width="87" height="19"><text text-decoration="none" x="2.5" fill="rgb(255, 255, 255)" font-weight="bold" font-size="10pt" font-family="lt_regular"  y="15">Plant&#160;</text><text text-decoration="none" x="34.5" fill="rgb(255, 255, 255)" font-weight="bold" font-size="10pt" font-family="lt_regular"  y="15">Manager</text><text text-decoration="none" x="84.5" fill="#4b4b4b" font-size="10pt" font-family="noto_regular"  y="15"></text></g></g><g id="7Va7vgQaytk"><g transform="translate(600 200)"><rect x="0" y="0" width="160" height="60" fill="rgb(242,175,29)" stroke="#f2af1d" stroke-width="2" stroke-linecap="round" stroke-linejoin="round" stroke-dasharray="0 0"/></g><g transform="translate(636.5, 220.5) rotate(0, 43.5, 9.5)" width="87" height="19"><text text-decoration="none" x="2.5" fill="rgb(255, 255, 255)" font-weight="bold" font-size="10pt" font-family="lt_regular"  y="15">Plant&#160;</text><text text-decoration="none" x="34.5" fill="rgb(255, 255, 255)" font-weight="bold" font-size="10pt" font-family="lt_regular"  y="15">Manager</text><text text-decoration="none" x="84.5" fill="#4b4b4b" font-size="10pt" font-family="noto_regular"  y="15"></text></g></g><g id="jHtVm5TMKKb"><g transform="translate(800 200)"><rect x="0" y="0" width="160" height="60" fill="rgb(217,71,83)" stroke="#d94753" stroke-width="2" stroke-linecap="round" stroke-linejoin="round" stroke-dasharray="0 0"/></g><g transform="translate(853.5, 211.5) rotate(0, 26.5, 18.5)" width="53" height="37"><text text-decoration="none" x="12" fill="rgb(255, 255, 255)" font-weight="bold" font-size="10pt" font-family="lt_regular"  y="14">Sales</text><text text-decoration="none" x="41" fill="rgb(255, 255, 255)" font-weight="bold" font-size="10pt" font-family="lt_regular"  y="14"></text><text text-decoration="none" x="1.5" fill="rgb(255, 255, 255)" font-weight="bold" font-size="10pt" font-family="lt_regular"  y="33">Manager</text><text text-decoration="none" x="51.5" fill="#4b4b4b" font-size="10pt" font-family="noto_regular"  y="33"></text></g></g><g id="QNcfi3JffSN"><g transform="translate(1000 200)"><rect x="0" y="0" width="160" height="60" fill="rgb(217,71,83)" stroke="#d94753" stroke-width="2" stroke-linecap="round" stroke-linejoin="round" stroke-dasharray="0 0"/></g><g transform="translate(1045.5, 211.5) rotate(0, 34.5, 18.5)" width="69" height="37"><text text-decoration="none" x="1.5" fill="rgb(255, 255, 255)" font-weight="bold" font-size="10pt" font-family="lt_regular"  y="14">Advertising</text><text text-decoration="none" x="67.5" fill="rgb(255, 255, 255)" font-weight="bold" font-size="10pt" font-family="lt_regular"  y="14"></text><text text-decoration="none" x="9.5" fill="rgb(255, 255, 255)" font-weight="bold" font-size="10pt" font-family="lt_regular"  y="33">Manager</text><text text-decoration="none" x="59.5" fill="#4b4b4b" font-size="10pt" font-family="noto_regular"  y="33"></text></g></g><g id="nKMM6M9b4Gz"><g transform="translate(1200 200)"><rect x="0" y="0" width="160" height="60" fill="rgb(9,149,206)" stroke="#0995ce" stroke-width="2" stroke-linecap="round" stroke-linejoin="round" stroke-dasharray="0 0"/></g><g transform="translate(1242.5, 220.5) rotate(0, 37.5, 9.5)" width="75" height="19"><text text-decoration="none" x="2" fill="rgb(255, 255, 255)" font-weight="bold" font-size="10pt" font-family="lt_regular"  y="15">HR&#160;</text><text text-decoration="none" x="23" fill="rgb(255, 255, 255)" font-weight="bold" font-size="10pt" font-family="lt_regular"  y="15">Manager</text><text text-decoration="none" x="73" fill="#4b4b4b" font-size="10pt" font-family="noto_regular"  y="15"></text></g></g><g id="oJ1Q6tFq3Jb"><g transform="translate(1400 200)"><rect x="0" y="0" width="160" height="60" fill="rgb(9,149,206)" stroke="#0995ce" stroke-width="2" stroke-linecap="round" stroke-linejoin="round" stroke-dasharray="0 0"/></g><g transform="translate(1427.5, 220.5) rotate(0, 52.5, 9.5)" width="105" height="19"><text text-decoration="none" x="2.5" fill="rgb(255, 255, 255)" font-weight="bold" font-size="10pt" font-family="lt_regular"  y="15">Recruit&#160;</text><text text-decoration="none" x="46.5" fill="rgb(255, 255, 255)" font-weight="bold" font-size="10pt" font-family="lt_regular"  y="15">Executive</text><text text-decoration="none" x="102.5" fill="#4b4b4b" font-size="10pt" font-family="noto_regular"  y="15"></text></g></g><g id="0agm4UDWUhl"><g transform="translate(1600 200)"><rect x="0" y="0" width="160" height="60" fill="rgb(9,149,206)" stroke="#0995ce" stroke-width="2" stroke-linecap="round" stroke-linejoin="round" stroke-dasharray="0 0"/></g><g transform="translate(1655, 220.5) rotate(0, 25, 9.5)" width="50" height="19"><text text-decoration="none" x="1.5" fill="rgb(255, 255, 255)" font-weight="bold" font-size="10pt" font-family="lt_regular"  y="15">Benefits</text><text text-decoration="none" x="48.5" fill="#4b4b4b" font-size="10pt" font-family="noto_regular"  y="15"></text></g></g><g id="9b8sFaeJgVB"><g transform="translate(0 350)"><rect x="0" y="0" width="160" height="60" fill="rgb(5,79,122)" stroke="#054f7a" stroke-width="2" stroke-linecap="round" stroke-linejoin="round" stroke-dasharray="0 0"/></g><g transform="translate(45, 361.5) rotate(0, 35, 18.5)" width="70" height="37"><text text-decoration="none" x="18" fill="rgb(255, 255, 255)" font-weight="bold" font-size="10pt" font-family="lt_regular"  y="14">Junior</text><text text-decoration="none" x="52" fill="rgb(255, 255, 255)" font-weight="bold" font-size="10pt" font-family="lt_regular"  y="14"></text><text text-decoration="none" x="2.5" fill="rgb(255, 255, 255)" font-weight="bold" font-size="10pt" font-family="lt_regular"  y="33">Accountant</text><text text-decoration="none" x="67.5" fill="#4b4b4b" font-size="10pt" font-family="noto_regular"  y="33"></text></g></g><g id="1k4wcrRAxK3"><g transform="translate(600 350)"><rect x="0" y="0" width="160" height="60" fill="rgb(242,175,29)" stroke="#f2af1d" stroke-width="2" stroke-linecap="round" stroke-linejoin="round" stroke-dasharray="0 0"/></g><g transform="translate(640.5, 361.5) rotate(0, 39.5, 18.5)" width="79" height="37"><text text-decoration="none" x="3" fill="rgb(255, 255, 255)" font-weight="bold" font-size="10pt" font-family="lt_regular"  y="14">Maintenance</text><text text-decoration="none" x="76" fill="rgb(255, 255, 255)" font-weight="bold" font-size="10pt" font-family="lt_regular"  y="14"></text><text text-decoration="none" x="9" fill="rgb(255, 255, 255)" font-weight="bold" font-size="10pt" font-family="lt_regular"  y="33">Supervisor</text><text text-decoration="none" x="70" fill="#4b4b4b" font-size="10pt" font-family="noto_regular"  y="33"></text></g></g><g id="cv4MsulKRb3"><g transform="translate(1000 350)"><rect x="0" y="0" width="160" height="60" fill="rgb(217,71,83)" stroke="#d94753" stroke-width="2" stroke-linecap="round" stroke-linejoin="round" stroke-dasharray="0 0"/></g><g transform="translate(1024, 370.5) rotate(0, 56, 9.5)" width="112" height="19"><text text-decoration="none" x="3" fill="rgb(255, 255, 255)" font-weight="bold" font-size="10pt" font-family="lt_regular"  y="15">Account&#160;</text><text text-decoration="none" x="53" fill="rgb(255, 255, 255)" font-weight="bold" font-size="10pt" font-family="lt_regular"  y="15">Executive</text><text text-decoration="none" x="109" fill="#4b4b4b" font-size="10pt" font-family="noto_regular"  y="15"></text></g></g><g id="StpCBB1ZkmJ"><g transform="translate(1490 350)"><rect x="0" y="0" width="160" height="60" fill="rgb(9,149,206)" stroke="#0995ce" stroke-width="2" stroke-linecap="round" stroke-linejoin="round" stroke-dasharray="0 0"/></g><g transform="translate(1539, 370.5) rotate(0, 31, 9.5)" width="62" height="19"><text text-decoration="none" x="1.5" fill="rgb(255, 255, 255)" font-weight="bold" font-size="10pt" font-family="lt_regular"  y="15">Recruiters</text><text text-decoration="none" x="60.5" fill="#4b4b4b" font-size="10pt" font-family="noto_regular"  y="15"></text></g></g><g id="sUdJj1nqEYq"><g transform="translate(1710 350)"><rect x="0" y="0" width="160" height="60" fill="rgb(9,149,206)" stroke="#0995ce" stroke-width="2" stroke-linecap="round" stroke-linejoin="round" stroke-dasharray="0 0"/></g><g transform="translate(1759, 370.5) rotate(0, 31, 9.5)" width="62" height="19"><text text-decoration="none" x="1.5" fill="rgb(255, 255, 255)" font-weight="bold" font-size="10pt" font-family="lt_regular"  y="15">Recruiters</text><text text-decoration="none" x="60.5" fill="#4b4b4b" font-size="10pt" font-family="noto_regular"  y="15"></text></g></g><g id="lCXEKIYtNnF"><g><path d="M 80,260 L 80,350" fill="none" stroke="#054f7a" stroke-width="2" stroke-linecap="round" stroke-linejoin="round" stroke-dasharray="0 0"/></g></g><g id="4mBDAphqWgK"><g><path d="M 680,260 L 680,350" fill="none" stroke="#f2af1d" stroke-width="2" stroke-linecap="round" stroke-linejoin="round" stroke-dasharray="0 0"/></g></g><g id="uBjVePRXeab"><g><path d="M 1080,260 L 1080,350" fill="none" stroke="#d94753" stroke-width="2" stroke-linecap="round" stroke-linejoin="round" stroke-dasharray="0 0"/></g></g><g id="17oKf9vA4z8"><g><path d="M 1680,260 L 1680,305 L 1625,305 L 1570,305 L 1570,350" fill="none" stroke="#0995ce" stroke-width="2" stroke-linecap="round" stroke-linejoin="round" stroke-dasharray="0 0"/></g></g><g id="IRNIRzcxfzp"><g><path d="M 1680,260 L 1680,305 L 1735,305 L 1790,305 L 1790,350" fill="none" stroke="#0995ce" stroke-width="2" stroke-linecap="round" stroke-linejoin="round" stroke-dasharray="0 0"/></g></g><g id="0uEdKIaDxFF"><g transform="translate(100 50)"><rect x="0" y="0" width="160" height="60" fill="rgb(5,79,122)" stroke="#054f7a" stroke-width="2" stroke-linecap="round" stroke-linejoin="round" stroke-dasharray="0 0"/></g><g transform="translate(136, 61.5) rotate(0, 44, 18.5)" width="88" height="37"><text text-decoration="none" x="2.5" fill="rgb(255, 255, 255)" font-weight="bold" font-size="10pt" font-family="lt_regular"  y="14">Vice&#160;</text><text text-decoration="none" x="30.5" fill="rgb(255, 255, 255)" font-weight="bold" font-size="10pt" font-family="lt_regular"  y="14">President</text><text text-decoration="none" x="85.5" fill="rgb(255, 255, 255)" font-weight="bold" font-size="10pt" font-family="lt_regular"  y="14"></text><text text-decoration="none" x="22.5" fill="rgb(255, 255, 255)" font-weight="bold" font-size="10pt" font-family="lt_regular"  y="33">Finance</text><text text-decoration="none" x="65.5" fill="#4b4b4b" font-size="10pt" font-family="noto_regular"  y="33"></text></g></g><g id="cgbljxq498D"><g><path d="M 180,110 L 180,155 L 130,155 L 80,155 L 80,200" fill="none" stroke="#054f7a" stroke-width="2" stroke-linecap="round" stroke-linejoin="round" stroke-dasharray="0 0"/></g></g><g id="DRZNVxD0B3M"><g><path d="M 180,110 L 180,155 L 230,155 L 280,155 L 280,200" fill="none" stroke="#054f7a" stroke-width="2" stroke-linecap="round" stroke-linejoin="round" stroke-dasharray="0 0"/></g></g><g id="YeQrHxA0DuT"><g transform="translate(500 50)"><rect x="0" y="0" width="160" height="60" fill="rgb(242,175,29)" stroke="#f2af1d" stroke-width="2" stroke-linecap="round" stroke-linejoin="round" stroke-dasharray="0 0"/></g><g transform="translate(535.5, 61.5) rotate(0, 44.5, 18.5)" width="89" height="37"><text text-decoration="none" x="3" fill="rgb(255, 255, 255)" font-weight="bold" font-size="10pt" font-family="lt_regular"  y="14">Vice&#160;</text><text text-decoration="none" x="31" fill="rgb(255, 255, 255)" font-weight="bold" font-size="10pt" font-family="lt_regular"  y="14">President</text><text text-decoration="none" x="86" fill="rgb(255, 255, 255)" font-weight="bold" font-size="10pt" font-family="lt_regular"  y="14"></text><text text-decoration="none" x="3" fill="rgb(255, 255, 255)" font-weight="bold" font-size="10pt" font-family="lt_regular"  y="33">Manufacturing</text><text text-decoration="none" x="86" fill="#4b4b4b" font-size="10pt" font-family="noto_regular"  y="33"></text></g></g><g id="7FtXP6p6UR7"><g><path d="M 580,110 L 580,155 L 530,155 L 480,155 L 480,200" fill="none" stroke="#f2af1d" stroke-width="2" stroke-linecap="round" stroke-linejoin="round" stroke-dasharray="0 0"/></g></g><g id="W1xIDa3KBPn"><g><path d="M 580,110 L 580,155 L 630,155 L 680,155 L 680,200" fill="none" stroke="#f2af1d" stroke-width="2" stroke-linecap="round" stroke-linejoin="round" stroke-dasharray="0 0"/></g></g><g id="bT5GAXyp8pf"><g transform="translate(900 50)"><rect x="0" y="0" width="160" height="60" fill="rgb(217,71,83)" stroke="#d94753" stroke-width="2" stroke-linecap="round" stroke-linejoin="round" stroke-dasharray="0 0"/></g><g transform="translate(936, 61.5) rotate(0, 44, 18.5)" width="88" height="37"><text text-decoration="none" x="2.5" fill="rgb(255, 255, 255)" font-weight="bold" font-size="10pt" font-family="lt_regular"  y="14">Vice&#160;</text><text text-decoration="none" x="30.5" fill="rgb(255, 255, 255)" font-weight="bold" font-size="10pt" font-family="lt_regular"  y="14">President</text><text text-decoration="none" x="85.5" fill="rgb(255, 255, 255)" font-weight="bold" font-size="10pt" font-family="lt_regular"  y="14"></text><text text-decoration="none" x="14.5" fill="rgb(255, 255, 255)" font-weight="bold" font-size="10pt" font-family="lt_regular"  y="33">Marketing</text><text text-decoration="none" x="73.5" fill="#4b4b4b" font-size="10pt" font-family="noto_regular"  y="33"></text></g></g><g id="o7tws6Xb9WF"><g><path d="M 980,110 L 980,155 L 930,155 L 880,155 L 880,200" fill="none" stroke="#d94753" stroke-width="2" stroke-linecap="round" stroke-linejoin="round" stroke-dasharray="0 0"/></g></g><g id="CxAksFEICwV"><g><path d="M 980,110 L 980,155 L 1030,155 L 1080,155 L 1080,200" fill="none" stroke="#d94753" stroke-width="2" stroke-linecap="round" stroke-linejoin="round" stroke-dasharray="0 0"/></g></g><g id="h6m7sI67mXW"><g transform="translate(1400 50)"><rect x="0" y="0" width="160" height="60" fill="rgb(9,149,206)" stroke="#0995ce" stroke-width="2" stroke-linecap="round" stroke-linejoin="round" stroke-dasharray="0 0"/></g><g transform="translate(1436, 61.5) rotate(0, 44, 18.5)" width="88" height="37"><text text-decoration="none" x="2.5" fill="rgb(255, 255, 255)" font-weight="bold" font-size="10pt" font-family="lt_regular"  y="14">Vice&#160;</text><text text-decoration="none" x="30.5" fill="rgb(255, 255, 255)" font-weight="bold" font-size="10pt" font-family="lt_regular"  y="14">President</text><text text-decoration="none" x="85.5" fill="rgb(255, 255, 255)" font-weight="bold" font-size="10pt" font-family="lt_regular"  y="14"></text><text text-decoration="none" x="35" fill="rgb(255, 255, 255)" font-weight="bold" font-size="10pt" font-family="lt_regular"  y="33">HR</text><text text-decoration="none" x="53" fill="#4b4b4b" font-size="10pt" font-family="noto_regular"  y="33"></text></g></g><g id="IbwcRvEDSl2"><g><path d="M 1480,110 L 1480,200" fill="none" stroke="#0995ce" stroke-width="2" stroke-linecap="round" stroke-linejoin="round" stroke-dasharray="0 0"/></g></g><g id="m7NlLjOj3hO"><g><path d="M 1480,110 L 1480,155 L 1580,155 L 1680,155 L 1680,200" fill="none" stroke="#0995ce" stroke-width="2" stroke-linecap="round" stroke-linejoin="round" stroke-dasharray="0 0"/></g></g><g id="xivDf5QQYWS"><g><path d="M 1480,110 L 1480,155 L 1380,155 L 1280,155 L 1280,200" fill="none" stroke="#0995ce" stroke-width="2" stroke-linecap="round" stroke-linejoin="round" stroke-dasharray="0 0"/></g></g><g id="Djg3PtBZvbU"><g transform="translate(700 -100)"><rect x="0" y="0" width="160" height="60" fill="rgb(112,12,43)" stroke="#700c2b" stroke-width="2" stroke-linecap="round" stroke-linejoin="round" stroke-dasharray="0 0"/></g><g transform="translate(766, -79.5) rotate(0, 14, 9.5)" width="28" height="19"><text text-decoration="none" x="0.5" fill="rgb(255, 255, 255)" font-weight="bold" font-size="10pt" font-family="lt_regular"  y="15">CEO</text><text text-decoration="none" x="27.5" fill="#4b4b4b" font-size="10pt" font-family="noto_regular"  y="15"></text></g></g><g id="rHmiDEWQicc"><g><path d="M 580,50 L 580,5 L 680,5 L 780,5 L 780,-40" fill="none" stroke="#354860" stroke-width="2" stroke-linecap="round" stroke-linejoin="round" stroke-dasharray="0 0"/></g></g><g id="13bzi2maJ43"><g><path d="M 780,-40 L 780,5 L 880,5 L 980,5 L 980,50" fill="none" stroke="#354860" stroke-width="2" stroke-linecap="round" stroke-linejoin="round" stroke-dasharray="0 0"/></g></g><g id="2Ej42uzWtzK"><g><path d="M 780,-40 L 780,5 L 1130,5 L 1480,5 L 1480,50" fill="none" stroke="#354860" stroke-width="2" stroke-linecap="round" stroke-linejoin="round" stroke-dasharray="0 0"/></g></g><g id="MMOmdrlra9p"><g><path d="M 780,-40 L 780,5 L 480,5 L 180,5 L 180,50" fill="none" stroke="#354860" stroke-width="2" stroke-linecap="round" stroke-linejoin="round" stroke-dasharray="0 0"/></g></g></svg>